<svg xmlns="http://www.w3.org/2000/svg" version="1.1" xmlns:xlink="http://www.w3.org/1999/xlink" xmlns:svgjs="http://svgjs.com/svgjs" width="4000" height="3000" preserveAspectRatio="none" viewBox="0 0 4000 3000"><g mask="url(&quot;#SvgjsMask1095&quot;)" fill="none"><rect width="4000" height="3000" x="0" y="0" fill="rgba(229, 173, 123, 1)"></rect><path d="M0,1404.014C302.275,1411.802,626.547,1533.568,888.491,1382.519C1152.401,1230.337,1229.525,896.399,1358.729,620.511C1489.23,341.854,1648.794,70.916,1646.843,-236.78C1644.734,-569.42,1599.934,-951.011,1347.394,-1167.523C1096.274,-1382.818,697.918,-1204.952,386.74,-1317.116C43.962,-1440.67,-187.07,-1927.378,-542.878,-1848.872C-891.348,-1771.985,-967.342,-1297.834,-1133.043,-981.787C-1263.547,-732.872,-1334.612,-473.96,-1406.224,-202.184C-1487.824,107.498,-1689.279,420.739,-1582.124,722.532C-1474.111,1026.741,-1156.029,1209.777,-859.548,1337.483C-590.162,1453.518,-293.217,1396.46,0,1404.014" fill="#d88337"></path><path d="M4000 4840.536C4356.669 4840.963 4706.174 4757.721 5015.473 4580.106 5335.631 4396.254 5695.478 4173.42 5785.305 3815.322 5874.28 3460.621 5597.9349999999995 3129.952 5464.657999999999 2789.4139999999998 5362.289 2527.85 5261.012 2277.763 5094.901 2051.263 4915.668 1806.87 4733.082 1560.808 4462.909 1423.478 4159.258 1269.131 3817.091 1178.558 3480.4700000000003 1230.643 3119.474 1286.5 2769.401 1450.375 2526.395 1723.114 2281.8599999999997 1997.568 2140.279 2365.276 2142.016 2732.862 2143.648 3078.287 2391.868 3354.663 2535.5860000000002 3668.775 2679.1800000000003 3982.616 2716.608 4362.049 2986.089 4577.6759999999995 3264.339 4800.32 3643.639 4840.109 4000 4840.536" fill="#f2d7bf"></path></g><defs><mask id="SvgjsMask1095"><rect width="4000" height="3000" fill="#ffffff"></rect></mask></defs></svg>